<?xml version="1.0" encoding="UTF-8"?>
<svg width="21px" height="12px" viewBox="0 0 21 12" version="1.1" xmlns="http://www.w3.org/2000/svg" xmlns:xlink="http://www.w3.org/1999/xlink">
    <!-- Generator: Sketch 62 (91390) - https://sketch.com -->
    <title>Path</title>
    <desc>Created with Sketch.</desc>
    <g id="HOME" stroke="none" stroke-width="1" fill="none" fill-rule="evenodd">
        <g id="HMR_Home" transform="translate(-1399.000000, -948.000000)" fill="#FFFFFF" fill-rule="nonzero">
            <g id="Introduction" transform="translate(-46.000000, 0.000000)">
                <g id="Slider-Arrows" transform="translate(1325.000000, 923.000000)">
                    <g id="Arrows" transform="translate(120.000000, 25.000000)">
                        <path d="M6.42045248,11.5064607 L6.75190597,11.18426 C6.97156247,10.9707052 6.97156247,10.624442 6.75190597,10.4108417 L2.81777658,6.60805336 L20.4374994,6.60805336 C20.7481403,6.60805336 21,6.36318996 21,6.06117809 L21,5.6054487 C21,5.30343683 20.7481403,5.05857343 20.4374994,5.05857343 L2.81777658,5.05857343 L6.75190597,1.25578512 C6.97156247,1.04223033 6.97156247,0.695967137 6.75190597,0.482366772 L6.42045248,0.160166094 C6.20079598,-0.0533886979 5.84463934,-0.0533886979 5.62498284,0.160166094 L0.164742371,5.44662701 C-0.0549141238,5.6601818 -0.0549141238,6.00644499 0.164742371,6.22004535 L5.62498284,11.5065063 C5.84463934,11.7200611 6.20079598,11.7200611 6.42045248,11.5064607 Z" id="Path"></path>
                    </g>
                </g>
            </g>
        </g>
    </g>
</svg>