<?xml version="1.0" encoding="UTF-8"?>
<svg width="21px" height="12px" viewBox="0 0 21 12" version="1.1" xmlns="http://www.w3.org/2000/svg" xmlns:xlink="http://www.w3.org/1999/xlink">
    <!-- Generator: Sketch 62 (91390) - https://sketch.com -->
    <title>Path</title>
    <desc>Created with Sketch.</desc>
    <g id="HOME" stroke="none" stroke-width="1" fill="none" fill-rule="evenodd">
        <g id="HMR_Home" transform="translate(-1399.000000, -982.000000)" fill="#FFFFFF" fill-rule="nonzero">
            <g id="Introduction" transform="translate(-46.000000, 0.000000)">
                <g id="Slider-Arrows" transform="translate(1325.000000, 923.000000)">
                    <g id="Arrows" transform="translate(120.000000, 25.000000)">
                        <path d="M6.42045248,45.5064607 L6.75190597,45.18426 C6.97156247,44.9707052 6.97156247,44.624442 6.75190597,44.4108417 L2.81777658,40.6080534 L20.4374994,40.6080534 C20.7481403,40.6080534 21,40.36319 21,40.0611781 L21,39.6054487 C21,39.3034368 20.7481403,39.0585734 20.4374994,39.0585734 L2.81777658,39.0585734 L6.75190597,35.2557851 C6.97156247,35.0422303 6.97156247,34.6959671 6.75190597,34.4823668 L6.42045248,34.1601661 C6.20079598,33.9466113 5.84463934,33.9466113 5.62498284,34.1601661 L0.164742371,39.446627 C-0.0549141238,39.6601818 -0.0549141238,40.006445 0.164742371,40.2200454 L5.62498284,45.5065063 C5.84463934,45.7200611 6.20079598,45.7200611 6.42045248,45.5064607 Z" id="Path" transform="translate(10.500000, 39.833333) rotate(-180.000000) translate(-10.500000, -39.833333) "></path>
                    </g>
                </g>
            </g>
        </g>
    </g>
</svg>