<?xml version="1.0" encoding="UTF-8"?>
<svg width="491px" height="318px" viewBox="0 0 491 318" version="1.1" xmlns="http://www.w3.org/2000/svg" xmlns:xlink="http://www.w3.org/1999/xlink">
    <!-- Generator: Sketch 59.1 (86144) - https://sketch.com -->
    <title>HMR_Logo Copy</title>
    <desc>Created with Sketch.</desc>
    <g id="Symbols" stroke="none" stroke-width="1" fill="none" fill-rule="evenodd">
        <g id="Artboard" transform="translate(-355.000000, -291.000000)" fill="#FFFFFF" fill-rule="nonzero">
            <g id="HMR_Logo-Copy" transform="translate(355.000000, 291.000000)">
                <path d="M491,15.1428571 L476.702543,15.1428571 L476.702543,0 L14.2974567,0 L14.2974567,15.1428571 L0,15.1428571 L0,304.659864 L14.2974567,304.659864 L14.2974567,318 L476.702543,318 L476.702543,304.659864 L491,304.659864 L491,15.1428571 L491,15.1428571 Z M19.0029488,4.68707483 L471.997051,4.68707483 L471.997051,15.1428571 L19.0029488,15.1428571 L19.0029488,4.68707483 Z M471.997051,19.829932 L471.997051,300.153061 L19.0029488,300.153061 L19.0029488,19.829932 L471.997051,19.829932 Z M4.70549208,300.153061 L4.70549208,19.829932 L14.2974567,19.829932 L14.2974567,300.153061 L4.70549208,300.153061 Z M471.997051,313.493197 L19.0029488,313.493197 L19.0029488,304.840136 L471.997051,304.840136 L471.997051,313.493197 Z M486.294508,300.153061 L476.702543,300.153061 L476.702543,19.829932 L486.294508,19.829932 L486.294508,300.153061 Z" id="Shape"></path>
                <g id="Group" transform="translate(75.000000, 80.000000)">
                    <g transform="translate(0.000000, 133.624116)">
                        <path d="M9.21033891,35.382021 C7.94617475,35.382021 6.68201058,35.382021 5.41784642,35.382021 C4.15368225,35.382021 2.70892321,35.382021 1.26416416,35.382021 L0.541784642,35.382021 L0.541784642,1.32988312 L1.26416416,1.32988312 C2.34773345,1.32988312 3.61189761,1.32988312 4.87606178,1.32988312 C6.32082082,1.32988312 7.76557987,1.32988312 9.39093379,1.32988312 C21.4907908,1.32988312 28.714586,7.60264535 28.714586,17.9975085 C28.714586,28.5715934 21.129601,35.382021 9.21033891,35.382021 Z M9.21033891,32.5144725 C19.3236522,32.5144725 25.4638782,26.9585974 25.4638782,17.8182867 C25.4638782,9.21564136 19.5042471,4.01820979 9.39093379,4.01820979 C7.76557987,4.01820979 6.5014157,4.01820979 5.41784642,4.01820979 C4.87606178,4.01820979 4.33427713,4.01820979 3.79249249,4.01820979 L3.79249249,32.156029 C3.79249249,32.3352507 9.02974403,32.5144725 9.21033891,32.5144725 Z" id="Shape"></path>
                        <polygon id="Path" points="61.5828543 35.382021 61.5828543 1.15066134 80.9065065 1.15066134 80.9065065 4.19743157 64.8335621 4.19743157 64.8335621 16.5637343 79.4617475 16.5637343 79.4617475 19.4312827 64.8335621 19.4312827 64.8335621 32.3352507 81.2676963 32.3352507 81.2676963 35.382021"></polygon>
                        <path d="M122.985114,35.7404645 C119.012026,35.7404645 114.135965,33.9482468 112.330016,30.7222547 L112.149421,30.543033 L114.135965,28.3923716 L114.316559,28.5715934 C116.303103,31.4391419 120.27619,32.6936943 122.804519,32.6936943 C126.597011,32.6936943 130.570099,30.7222547 130.570099,26.6001538 C130.570099,22.2988312 126.597011,20.6858352 122.443329,19.0728392 C117.747862,17.2806214 113.052395,15.3091818 113.052395,9.39486314 C113.052395,4.19743157 117.206078,0.792217782 123.165709,0.792217782 C126.958201,0.792217782 130.389504,2.22599201 132.376047,4.19743157 L132.556642,4.37665335 L130.750694,6.70653646 L130.570099,6.52731469 C128.76415,4.7350969 126.235822,3.65976623 123.165709,3.65976623 C119.012026,3.65976623 116.122508,5.81042757 116.122508,9.39486314 C116.122508,13.6961858 119.915001,15.12996 124.068683,16.742956 C128.583555,18.355952 133.640212,20.3273916 133.640212,26.7793756 C134.001401,31.9768072 129.305935,35.7404645 122.985114,35.7404645 Z" id="Path"></path>
                        <rect id="Rectangle" x="166.327885" y="1.15066134" width="3.25070785" height="34.0521379"></rect>
                        <path d="M219.06159,35.7404645 C208.767682,35.7404645 202.085671,28.930037 202.085671,18.1767303 C202.085671,7.96108891 209.128872,0.612996004 218.880995,0.612996004 C223.395867,0.612996004 226.646575,1.68832667 229.536093,3.83898801 L229.716688,4.01820979 L228.271929,6.52731469 L228.091334,6.34809291 C225.924196,4.55587512 223.034678,3.65976623 219.242185,3.65976623 C211.115415,3.65976623 205.516974,9.57408492 205.516974,18.1767303 C205.516974,26.7793756 211.115415,32.6936943 219.42278,32.6936943 C223.034678,32.6936943 227.18836,31.2599201 229.174903,29.2884805 L229.174903,21.4027223 L219.242185,21.4027223 L219.242185,18.355952 L232.245016,18.355952 L232.245016,30.9014765 L232.245016,30.9014765 C228.633119,34.3066903 222.854083,35.7404645 219.06159,35.7404645 Z" id="Path"></path>
                        <polygon id="Path" points="288.771214 35.382021 266.016259 6.88575824 266.016259 35.382021 262.946146 35.382021 262.946146 1.15066134 265.474474 1.15066134 288.229429 29.6469241 288.229429 1.15066134 291.299542 1.15066134 291.299542 35.382021"></polygon>
                        <path d="M329.405062,35.7404645 C325.431975,35.7404645 320.555913,33.9482468 318.749964,30.7222547 L318.749964,30.543033 L320.736508,28.3923716 L320.917103,28.5715934 C322.903647,31.4391419 326.876734,32.6936943 329.405062,32.6936943 C333.197555,32.6936943 337.170642,30.7222547 337.170642,26.6001538 C337.170642,22.2988312 333.197555,20.6858352 329.043872,19.0728392 C324.348406,17.2806214 319.652939,15.3091818 319.652939,9.39486314 C319.652939,4.19743157 323.806621,0.792217782 329.766252,0.792217782 C333.558744,0.792217782 336.990047,2.22599201 338.976591,4.19743157 L339.157186,4.37665335 L337.351237,6.70653646 L337.170642,6.52731469 C335.184098,4.7350969 332.836365,3.65976623 329.766252,3.65976623 C325.61257,3.65976623 322.723052,5.81042757 322.723052,9.39486314 C322.723052,13.6961858 326.515544,15.12996 330.669226,16.742956 C335.184098,18.355952 340.240755,20.3273916 340.240755,26.7793756 C340.42135,31.9768072 335.725883,35.7404645 329.405062,35.7404645 Z" id="Path"></path>
                    </g>
                    <g transform="translate(1.805949, 0.000000)">
                        <polygon id="Path" points="215.630287 116.673378 215.630287 9.14031069 167.050265 69.0003846 166.50848 69.0003846 117.747862 9.14031069 117.747862 116.673378 111.427041 116.673378 111.427041 0.179221778 118.470242 0.179221778 166.689075 60.576961 215.269098 0.179221778 222.131703 0.179221778 222.131703 116.673378"></polygon>
                        <path d="M241.27476,0.179221778 L292.744301,0.179221778 C307.191892,0.179221778 317.84699,3.40521379 323.987216,9.8571978 C329.224467,15.2338511 331.572201,22.7611658 331.030416,32.9768072 C330.308037,51.4366503 315.318662,57.7094126 303.03821,59.8600739 L300.871071,60.2185175 L336.809452,117.031821 L329.405062,117.031821 L293.466681,60.3977393 L248.317961,60.3977393 L248.317961,117.031821 L241.27476,117.031821 L241.27476,0.179221778 L241.27476,0.179221778 Z M256.264136,5.91431868 C253.194023,5.91431868 250.846289,5.91431868 249.76272,5.91431868 L248.317961,5.91431868 L248.317961,54.124977 L294.18906,54.3041988 C311.526169,54.3041988 324.709595,43.9093357 324.709595,30.2884805 C324.709595,13.8000769 314.054497,5.91431868 292.383112,5.91431868 C291.480137,5.91431868 288.410024,5.91431868 284.436937,5.91431868 C276.129572,5.91431868 264.029715,5.91431868 256.264136,5.91431868 Z" id="Shape"></path>
                        <polygon id="Path" points="85.0601888 116.673378 85.0601888 60.2185175 6.86260546 60.2185175 6.86260546 116.673378 0.541784642 116.673378 0.541784642 0.179221778 6.86260546 0.179221778 6.86260546 54.3041988 85.0601888 54.3041988 85.0601888 0.179221778 91.5616045 0.179221778 91.5616045 116.673378"></polygon>
                    </g>
                </g>
            </g>
        </g>
    </g>
</svg>