<?xml version="1.0" standalone="no"?>
<!DOCTYPE svg PUBLIC "-//W3C//DTD SVG 20010904//EN"
 "http://www.w3.org/TR/2001/REC-SVG-20010904/DTD/svg10.dtd">
<svg version="1.0" xmlns="http://www.w3.org/2000/svg"
 width="260.000000pt" height="260.000000pt" viewBox="0 0 260.000000 260.000000"
 preserveAspectRatio="xMidYMid meet">
<metadata>
Created by potrace 1.11, written by Peter Selinger 2001-2013
</metadata>
<g transform="translate(0.000000,260.000000) scale(0.100000,-0.100000)"
fill="#000000" stroke="none">
<path d="M77 2133 c-3 -5 -4 -23 -2 -40 2 -32 1 -33 -36 -33 l-39 0 0 -765 0
-765 39 0 c40 0 40 0 37 -35 l-4 -35 1222 2 1221 3 -1 32 c-1 32 0 33 37 33
l39 0 0 765 0 765 -38 0 c-39 0 -39 0 -37 40 l1 40 -1217 0 c-670 0 -1220 -3
-1222 -7z m2413 -45 l0 -28 -1195 0 -1195 0 0 23 c0 13 2 26 4 28 2 2 540 4
1195 4 l1191 0 0 -27z m-2415 -794 l0 -739 -25 0 -25 0 0 735 c-1 436 3 738 8
741 6 4 17 6 26 4 15 -2 16 -68 16 -741z m2413 1 l2 -741 -1192 1 -1193 0 -3
730 c-1 402 0 735 2 740 2 7 406 10 1192 10 l1189 0 3 -740z m67 733 c7 -4 10
-257 9 -735 -1 -400 -2 -731 -3 -735 0 -5 -11 -6 -23 -4 l-23 3 -1 734 c0 404
1 737 3 741 4 7 23 5 38 -4z m-65 -1521 l0 -23 -1192 0 -1193 1 -3 23 -3 22
1195 0 1196 0 0 -23z"/>
<path d="M410 1290 c0 -170 4 -310 8 -310 24 1 28 25 27 158 l0 142 208 0 207
0 0 -150 c0 -127 2 -150 15 -150 8 0 15 3 15 8 1 13 1 495 1 555 -1 44 -4 57
-16 57 -13 0 -15 -23 -15 -145 l0 -145 -204 0 c-154 0 -205 3 -208 13 -2 6 -4
72 -3 145 0 119 -1 132 -17 132 -17 0 -18 -21 -18 -310z"/>
<path d="M997 1298 c2 -357 0 -318 18 -318 13 0 15 38 15 283 l0 282 33 -36
c17 -19 74 -88 126 -152 52 -64 97 -117 100 -117 7 0 234 276 239 291 2 5 8 9
13 9 5 0 9 -117 9 -280 0 -242 2 -280 15 -280 10 0 15 10 16 28 0 42 0 469 0
535 -1 47 -4 57 -18 57 -11 -1 -70 -66 -146 -161 l-128 -159 -125 157 c-84
105 -133 159 -147 161 l-22 3 2 -303z"/>
<path d="M1683 1291 c0 -296 1 -311 19 -311 17 0 18 11 18 150 l0 150 119 0
120 0 92 -146 c86 -135 111 -166 126 -151 3 4 -33 68 -81 142 -48 75 -88 141
-89 147 -1 5 18 16 42 23 79 24 111 72 105 159 -3 56 -25 92 -75 121 -30 17
-56 20 -215 23 l-181 4 0 -311z m353 266 c71 -22 106 -106 72 -170 -31 -58
-70 -70 -240 -72 l-148 -2 0 129 0 129 140 -2 c77 0 157 -6 176 -12z"/>
</g>
</svg>
